<svg width="35" height="35" viewBox="0 0 35 35" fill="none" xmlns="http://www.w3.org/2000/svg">
<path d="M4.35205 17.4084L7.25346 14.507M7.25346 14.507L17.4084 4.35205L27.5633 14.507M7.25346 14.507V29.014C7.25346 29.8152 7.90296 30.4647 8.70416 30.4647H13.0563M27.5633 14.507L30.4647 17.4084M27.5633 14.507V29.014C27.5633 29.8152 26.9138 30.4647 26.1126 30.4647H21.7605M13.0563 30.4647C13.8575 30.4647 14.507 29.8152 14.507 29.014V23.2112C14.507 22.41 15.1565 21.7605 15.9577 21.7605H18.8591C19.6603 21.7605 20.3098 22.41 20.3098 23.2112V29.014C20.3098 29.8152 20.9593 30.4647 21.7605 30.4647M13.0563 30.4647H21.7605" stroke="black" stroke-width="2.90141" stroke-linecap="round" stroke-linejoin="round"/>
</svg>
